# xmcd
#
# Track frame offsets: 
#        150
#        19150
#        31728
#        55339
#        73176
#        93099
#        107443
#        125788
#        139772
#        163725
#        176420
#        190989
#
# Disc length: 2715 seconds
#
# Revision: 1
# Processed by: cddbd v1.5.2PL0 Copyright (c) Steve Scherf et al.
# Submitted via: ExactAudioCopy v1.0b1
#
DISCID=a10a990c
DTITLE=Rod Piazza and The All Mighty Flyers - Almighty Dollar
DYEAR=2011
DGENRE=Blues
TTITLE0=Move Out Baby
TTITLE1=What Makes You So Tough
TTITLE2=Blue Shadows
TTITLE3=Wine, Wine, Wine
TTITLE4=Ain't Nobody's Business
TTITLE5=That's It
TTITLE6=Baby Don't Go
TTITLE7=Loving Man
TTITLE8=Almighty Dollar
TTITLE9=We Belong Together
TTITLE10=Confessin' The Blues
TTITLE11=Con-Vo-Looted
EXTD=
EXTT0=
EXTT1=
EXTT2=
EXTT3=
EXTT4=
EXTT5=
EXTT6=
EXTT7=
EXTT8=
EXTT9=
EXTT10=
EXTT11=
PLAYORDER=
